{"title":"The Confession 2012 DSR STV XviD Feel-Free","uid":6990289,"size":537115010,"categoryP":"video","categoryS":"movies","magnet":"?xt=urn:btih:edf7b87c6c0a5b60dc8cf55d6bfb1cb9db53c456&amp;dn=The+Confession+2012+DSR+STV+XviD+Feel-Free&amp;tr=udp%3A%2F%2Ftracker.openbittorrent.com%3A80&amp;tr=udp%3A%2F%2Fopen.demonii.com%3A1337&amp;tr=udp%3A%2F%2Ftracker.coppersurfer.tk%3A6969&amp;tr=udp%3A%2F%2Fexodus.desync.com%3A6969","seeders":1,"leechers":0,"uploader":"Hero","files":8,"time":1327679761,"description":"Genre:Action | Crime | Drama\nLanguage:English\nIMDb: &lt;a href=&quot; http://www.imdb.com/title/tt1809362/&quot; rel=&quot;nofollow&quot; target=&quot;_NEW&quot;&gt; http://www.imdb.com/title/tt1809362/&lt;/a&gt;\nSource:kralcx Thanks!\nEncoder:Tony &lt;a href=&quot;\nhttp://img818.imageshack.us/img818/1003/vlcsnap2012012716h23m04.png&quot; rel=&quot;nofollow&quot; target=&quot;_NEW&quot;&gt;\nhttp://img818.imageshack.us/img818/1003/vlcsnap2012012716h23m04.png&lt;/a&gt; &lt;a href=&quot;\nhttp://img822.imageshack.us/img822/2930/vlcsnap2012012716h23m20.png&quot; rel=&quot;nofollow&quot; target=&quot;_NEW&quot;&gt;\nhttp://img822.imageshack.us/img822/2930/vlcsnap2012012716h23m20.png&lt;/a&gt;\n\nFormat : AVI\nFormat/Info : Audio Video Interleave\nFile size : 511 MiB\nDuration : 1h 2mn\nOverall bit rate : 1 146 Kbps\n\nVideo\nID : 0\nFormat : MPEG-4 Visual\nFormat profile : Advanced Simple@L5\nFormat settings, BVOP : 1\nFormat settings, QPel : No\nFormat settings, GMC : No warppoints\nFormat settings, Matrix : Default (H.263)\nCodec ID : XVID\nCodec ID/Hint : XviD\nDuration : 1h 2mn\nBit rate : 689 Kbps\nWidth : 640 pixels\nHeight : 360 pixels\nDisplay aspect ratio : 16:9\nFrame rate : 24.000 fps\nColor space : YUV\nChroma subsampling : 4:2:0\nBit depth : 8 bits\nScan type : Progressive\nCompression mode : Lossy\nBits/(Pixel*Frame) : 0.125\nStream size : 307 MiB (60%)\nWriting library : XviD 1.2.1 (UTC 2008-12-04)\n\nAudio\nID : 1\nFormat : AC-3\nFormat/Info : Audio Coding 3\nMode extension : CM (complete main)\nCodec ID : 2000\nDuration : 1h 2mn\nBit rate mode : Constant\nBit rate : 448 Kbps\nChannel(s) : 2 channels\nChannel positions : Front: L R\nSampling rate : 48.0 KHz\nBit depth : 16 bits\nCompression mode : Lossy\nStream size : 200 MiB (39%)\nAlignment : Aligned on interleaves\nInterleave, duration : 42 ms (1.00 video frame)\nInterleave, preload duration : 512 ms\n\n\nPlot:\nA unique story of redemption and an exploration of good and evil featuring a hit man and a priest","torrent":{"xt":"urn:btih:edf7b87c6c0a5b60dc8cf55d6bfb1cb9db53c456","amp;dn":"The+Confession+2012+DSR+STV+XviD+Feel-Free","amp;tr":["udp%3A%2F%2Ftracker.openbittorrent.com%3A80","udp%3A%2F%2Fopen.demonii.com%3A1337","udp%3A%2F%2Ftracker.coppersurfer.tk%3A6969","udp%3A%2F%2Fexodus.desync.com%3A6969"],"infoHash":"edf7b87c6c0a5b60dc8cf55d6bfb1cb9db53c456","infoHashBuffer":{"type":"Buffer","data":[237,247,184,124,108,10,91,96,220,140,245,93,107,251,28,185,219,83,196,86]},"announce":[],"urlList":[]}}